<svg id="Layer_1" data-name="Layer 1" xmlns="http://www.w3.org/2000/svg" viewBox="0 0 280 300"><defs><style>.cls-1{fill:#aeca36;}.cls-2{fill:#3d3d3c;}</style></defs><title>2gis Logo</title><g id="g10"><g id="g12"><g id="g14"><g id="g20"><path id="path22" class="cls-1" d="M129.18,150a29,29,0,0,0-2-10.55c-.34,10.82-11.81,19.2-18.54,24.75h16.85a29.05,29.05,0,0,0,3.7-14.2M117,126.16a32.18,32.18,0,0,0-19.31-6.38C80.3,119.78,66.2,133.31,66.2,150s14.1,30.22,31.49,30.22a32.07,32.07,0,0,0,20.76-7.54H95.65l-.06-6.43c13.73-11.45,22.15-19.2,22.15-26.69,0-2.78-1.1-6.29-6.07-6.29-3.93,0-7.73,2.18-7,11.32h-8c-2-10.59,4-19,15.46-19a20.49,20.49,0,0,1,4.92.58"/></g><g id="g24"><path id="path26" class="cls-2" d="M158.39,140.67h7.45c.25-5.44-1.66-14-13.94-14-9,0-15.6,5.19-15.6,16,0,1.47.06,9,.06,13.75,0,11.73,8.47,14.3,15.6,14.3,4.27,0,10.44-.92,13.31-3.91v-18.7h-14v6.78h6.24v8.25c-4.71,1.53-13.31,2.14-13.31-8.25V142.62c0-7.27,3.51-9.77,7.39-9.77s6.81,2,6.81,7.82m55.4,18.14c.32-16.74-19.67-11.18-19.48-20.53.07-3.29,2.3-5.43,5.92-5.43,3.89,0,6.18,2.2,6.11,7.94h7.33c.19-5.19-1.08-14-13.18-14-7.51,0-13.69,3.54-13.82,11.42-.31,16.07,19.8,10.82,19.48,20.53-.12,4-3.11,5.74-6.49,5.74-3.95,0-7.13-2.2-6.49-8.79h-7.39c-.82,8.73,3.19,15,13.82,15,9,0,14.07-4.77,14.19-11.8m-33.63,11.24h-7.51V127.29h7.51Zm0,0h-7.51V127.29h7.51Z"/></g></g></g></g></svg>