<svg viewBox="0 0 511.99945 511" xmlns="http://www.w3.org/2000/svg"><path d="m468.917969 43.582031c-33.15625-33.15625-80.382813-47.957031-132.96875-41.664062-51.25 6.125-101.671875 31.699219-141.976563 72.007812-40.308594 40.304688-65.878906 90.726563-72.007812 141.972657-4.324219 36.148437 1.316406 69.757812 16.03125 98.011718l-120.449219 105.820313-.207031.183593c-10.832032 9.875-16.984375 23.382813-17.324219 38.035157-.339844 14.65625 5.179687 28.433593 15.546875 38.800781 10.0625 10.0625 23.347656 15.5625 37.523438 15.5625.421874 0 .847656-.007812 1.273437-.015625 14.65625-.339844 28.164063-6.492187 38.035156-17.328125l.230469-.25 101.851562-122.457031c23.007813 12.953125 49.792969 19.691406 78.761719 19.691406 7.644531 0 15.441407-.46875 23.363281-1.417969 51.246094-6.128906 101.667969-31.699218 141.972657-72.007812 40.308593-40.304688 65.878906-90.726563 72.007812-141.976563 6.289063-52.589843-8.507812-99.8125-41.664062-132.96875zm-415.253907 438.722657c-6.375.128906-12.378906-2.257813-16.890624-6.769532-4.511719-4.511718-6.914063-10.511718-6.769532-16.890625.148438-6.339843 2.792969-12.1875 7.457032-16.480469l16.445312-14.445312 30.257812 30.257812-14.140624 17.003907c-4.28125 4.582031-10.078126 7.179687-16.359376 7.324219zm49.765626-47.488282-26.941407-26.9375 78.261719-68.753906c2.796875 3.367188 13.054688 13.777344 15.21875 15.691406zm313.933593-137.5c-72.472656 72.472656-176.78125 86.082032-232.519531 30.34375-26.515625-26.515625-38.265625-64.9375-33.09375-108.199218 5.332031-44.597657 27.863281-88.75 63.433594-124.324219 35.574218-35.574219 79.726562-58.101563 124.328125-63.433594 6.675781-.800781 13.238281-1.195313 19.65625-1.195313 35.179687 0 66.117187 11.867188 88.539062 34.285157 55.738281 55.742187 42.128907 160.050781-30.34375 232.523437zm0 0"></path><path d="m359 55.519531c-43.109375 0-90.265625 21.417969-126.136719 57.292969-31.171875 31.171875-51.6875 71.125-56.289062 109.617188-2.457031 20.550781-2.355469 59.25 25.945312 87.550781 22.273438 22.273437 50.921875 26.949219 71.027344 26.949219 43.113281 0 90.265625-21.417969 126.140625-57.292969 31.167969-31.167969 51.6875-71.121094 56.289062-109.617188 2.457032-20.546875 2.355469-59.25-25.949218-87.550781-22.273438-22.273438-50.917969-26.949219-71.027344-26.949219zm67.191406 110.941407c-3.820312 31.941406-21.214844 65.460937-47.714844 91.964843-30.375 30.371094-69.597656 48.503907-104.929687 48.503907-14.4375 0-34.804687-3.152344-49.816406-18.164063-19.332031-19.332031-19.183594-47.628906-17.371094-62.773437 3.820313-31.945313 21.210937-65.464844 47.714844-91.96875 30.371093-30.371094 69.597656-48.503907 104.925781-48.503907 14.441406 0 34.804688 3.148438 49.816406 18.160157 19.335938 19.335937 19.183594 47.632812 17.375 62.78125zm0 0"></path></svg>