<?xml version="1.0" standalone="no"?>
<!DOCTYPE svg PUBLIC "-//W3C//DTD SVG 20010904//EN"
 "http://www.w3.org/TR/2001/REC-SVG-20010904/DTD/svg10.dtd">
<svg version="1.0" xmlns="http://www.w3.org/2000/svg"
 width="2046.000000pt" height="2046.000000pt" viewBox="0 0 2046.000000 2046.000000"
 preserveAspectRatio="xMidYMid meet">

<g transform="translate(0.000000,2046.000000) scale(0.100000,-0.100000)"
fill="#000000" stroke="none">
<path d="M13115 20314 c-47 -26 -76 -56 -96 -99 -17 -36 -19 -70 -19 -367 l0
-328 -192 0 c-166 0 -199 -3 -233 -19 -152 -70 -154 -285 -3 -362 33 -17 60
-19 233 -19 l195 0 0 -325 c0 -271 3 -332 15 -363 36 -84 106 -126 200 -120
69 4 114 30 157 90 23 33 23 37 28 373 l5 340 200 5 c213 5 234 10 281 62 90
98 65 253 -51 316 -24 14 -69 18 -230 22 l-200 5 -5 341 -5 341 -27 36 c-48
61 -85 81 -158 84 -46 2 -74 -2 -95 -13z"/>
<path d="M267 20310 c-160 -50 -186 -276 -42 -365 l48 -30 626 -6 c575 -5 637
-8 761 -27 237 -38 486 -107 690 -190 52 -22 1174 -515 2494 -1096 2222 -980
2402 -1057 2452 -1057 98 0 180 71 198 171 10 56 -18 132 -62 171 -28 26 -616
289 -2486 1113 -1347 593 -2503 1098 -2570 1122 -245 87 -458 139 -719 175
-139 20 -204 22 -757 25 -335 2 -618 -1 -633 -6z"/>
<path d="M10060 19373 c-113 -19 -245 -89 -331 -175 -196 -196 -232 -504 -87
-745 41 -68 147 -169 219 -210 142 -81 332 -100 482 -49 191 65 329 203 393
392 31 92 37 230 15 324 -52 219 -226 394 -447 450 -71 19 -178 24 -244 13z
m188 -422 c138 -71 150 -256 23 -346 -37 -26 -51 -30 -111 -30 -60 0 -74 4
-112 30 -128 89 -114 276 27 349 42 22 127 20 173 -3z"/>
<path d="M8047 17575 c-53 -14 -107 -59 -132 -111 -35 -73 -7 -188 56 -237 19
-14 122 -64 230 -111 l196 -87 7 -86 c36 -434 193 -882 438 -1247 34 -50 378
-497 765 -994 l704 -903 440 -1582 c241 -870 439 -1587 439 -1593 0 -6 -35
-33 -77 -60 -92 -57 -213 -174 -271 -261 -170 -252 -219 -534 -143 -823 11
-41 18 -76 16 -78 -6 -6 -161 176 -221 260 -187 259 -381 663 -530 1100 -70
207 -95 296 -429 1498 -151 547 -283 1005 -291 1019 -53 79 -1679 2153 -1703
2170 -147 105 -353 -35 -311 -211 11 -43 115 -181 833 -1101 l821 -1052 394
-1415 c216 -778 389 -1416 384 -1418 -35 -11 -170 -113 -230 -174 -140 -139
-234 -313 -274 -507 -26 -123 -21 -314 11 -435 12 -44 21 -82 21 -85 0 -11
-84 77 -143 149 -247 306 -493 815 -668 1388 -23 75 -156 546 -294 1045 -179
644 -259 918 -276 940 -60 83 -1266 1626 -1291 1653 -65 70 -186 110 -284 94
-155 -25 -269 -148 -281 -304 -5 -58 27 -177 508 -1910 481 -1733 512 -1850
495 -1860 -289 -169 -465 -427 -507 -742 -17 -132 3 -326 47 -449 10 -30 -66
45 -143 140 -233 287 -445 711 -622 1242 -33 98 -107 349 -166 558 -115 410
-122 428 -198 467 -116 59 -254 -5 -288 -134 -14 -52 -8 -79 148 -628 246
-868 555 -1499 924 -1885 152 -158 310 -273 451 -327 54 -21 64 -29 104 -91
112 -173 263 -273 472 -313 156 -30 397 -10 514 43 68 30 140 102 171 171 16
35 21 67 21 127 0 75 -44 236 -712 2640 -392 1408 -711 2563 -710 2567 4 8
966 -1221 991 -1266 9 -17 130 -438 268 -936 138 -498 281 -997 319 -1110 269
-808 618 -1393 1006 -1685 76 -58 270 -165 298 -165 8 0 35 -33 60 -74 63
-101 165 -193 269 -244 116 -58 182 -73 337 -79 211 -8 374 29 462 106 83 74
128 198 108 303 -6 28 -46 180 -90 338 -44 158 -80 293 -80 299 0 7 31 -16 69
-50 38 -34 102 -84 143 -112 69 -47 224 -127 247 -127 6 0 35 -38 66 -84 92
-140 197 -220 366 -277 85 -29 108 -33 239 -37 160 -4 299 16 385 58 101 49
173 157 183 275 4 58 -9 110 -178 720 -100 361 -180 658 -178 660 2 3 22 -1
44 -7 21 -7 100 -12 174 -13 124 0 139 2 185 25 69 34 139 108 167 177 l23 58
0 2420 0 2420 -28 100 c-73 267 -228 476 -454 613 -46 28 -3634 1614 -3693
1632 -52 17 -76 18 -123 5z m2199 -1360 c1073 -473 1415 -627 1459 -661 73
-54 137 -131 175 -210 63 -130 60 -56 58 -1585 l-3 -1392 -60 -17 c-224 -64
-423 -209 -553 -403 -30 -45 -54 -73 -57 -65 -2 7 -135 482 -294 1056 -240
868 -293 1048 -317 1080 -15 20 -344 442 -730 938 -387 496 -730 943 -764 995
-73 113 -154 271 -203 394 -68 171 -151 503 -123 492 6 -3 642 -282 1412 -622z
m1694 -4981 l0 -707 -42 7 c-138 21 -253 88 -302 176 l-31 55 0 365 c0 326 2
371 18 425 31 98 83 186 150 252 60 60 167 133 194 133 11 0 13 -131 13 -706z
m-436 -1732 l183 -657 -41 -8 c-59 -12 -176 -1 -239 23 -58 22 -117 72 -142
120 -9 16 -54 168 -102 337 -86 304 -87 310 -87 423 -1 95 3 127 22 182 29 85
88 176 155 240 l52 49 8 -26 c5 -14 91 -322 191 -683z m-4235 -308 c100 -359
184 -665 187 -682 l6 -30 -63 -7 c-118 -13 -245 23 -308 86 -48 48 -60 79
-152 409 -113 404 -116 493 -27 672 28 56 61 101 105 146 36 35 66 62 68 60 2
-1 85 -296 184 -654z m2705 -30 c103 -372 184 -679 181 -683 -4 -3 -52 -6
-108 -5 -157 2 -260 51 -306 146 -26 54 -178 601 -192 690 -18 115 11 252 78
368 30 51 130 160 148 160 7 0 88 -277 199 -676z"/>
<path d="M282 17310 c-44 -10 -94 -46 -123 -88 -23 -34 -24 -42 -23 -201 2
-522 208 -1078 563 -1518 95 -118 295 -314 411 -405 132 -102 292 -202 434
-272 72 -35 752 -337 1511 -671 l1381 -607 214 -776 c234 -846 229 -832 315
-876 80 -41 194 -15 250 58 14 18 30 58 36 87 10 53 7 66 -220 884 -127 457
-236 842 -242 856 -6 15 -25 40 -42 57 -24 22 -429 205 -1532 691 -903 398
-1542 686 -1607 723 -448 256 -798 685 -962 1178 -62 185 -94 351 -107 555 -6
94 -16 183 -22 200 -20 53 -75 104 -130 120 -55 16 -57 16 -105 5z"/>
<path d="M3345 16831 c-48 -22 -79 -54 -100 -103 -12 -31 -15 -92 -15 -363 l0
-325 -192 0 c-166 0 -199 -3 -233 -19 -139 -64 -156 -245 -32 -345 l39 -31
206 -5 207 -5 5 -335 c5 -365 5 -364 67 -422 37 -35 73 -48 133 -48 60 0 96
13 133 48 62 58 62 57 67 422 l5 335 207 5 206 5 39 31 c98 79 111 214 30 303
-49 53 -86 61 -294 61 l-193 0 0 328 c0 297 -2 331 -19 367 -46 100 -165 143
-266 96z"/>
<path d="M822 13190 c-54 -13 -108 -55 -131 -102 -20 -42 -21 -59 -21 -371 l0
-327 -172 0 c-189 0 -232 -7 -282 -41 -54 -37 -80 -83 -84 -153 -4 -78 24
-138 86 -181 l44 -30 204 -3 204 -3 0 -330 c0 -308 1 -332 20 -368 74 -146
280 -147 357 -2 23 44 23 48 23 372 l0 328 204 3 204 3 43 30 c106 75 118 218
26 313 -49 51 -104 62 -304 62 l-173 0 0 325 c0 354 0 355 -59 418 -47 52
-121 74 -189 57z"/>
<path d="M2945 11974 c-293 -45 -508 -281 -523 -574 -16 -332 227 -608 561
-636 82 -7 205 13 282 46 169 73 304 234 351 420 22 89 15 251 -16 339 -29 82
-108 199 -173 256 -60 52 -159 106 -237 129 -56 17 -193 28 -245 20z m164
-423 c80 -41 130 -131 116 -211 -32 -188 -282 -233 -375 -67 -29 50 -32 135
-7 182 51 98 174 142 266 96z"/>
<path d="M18597 11785 c-21 -8 -51 -25 -66 -37 -27 -22 -647 -667 -739 -770
-24 -26 -49 -48 -54 -48 -6 0 -106 94 -222 208 -517 509 -589 578 -626 600
-59 36 -142 40 -208 12 -42 -18 -81 -54 -214 -194 -391 -412 -612 -641 -620
-641 -7 0 -82 73 -555 537 -146 144 -269 256 -295 269 -58 31 -147 32 -204 1
-27 -14 -233 -218 -581 -574 -680 -697 -685 -702 -705 -746 -20 -43 -23 -118
-6 -176 14 -48 66 -101 723 -742 231 -225 542 -528 690 -674 149 -147 299
-294 335 -328 l65 -61 -196 -198 c-195 -198 -476 -486 -769 -788 -85 -88 -243
-250 -350 -360 -310 -316 -620 -635 -810 -830 -96 -99 -259 -265 -361 -370
-495 -507 -599 -614 -644 -663 -26 -29 -52 -51 -56 -50 -5 2 -120 113 -256
248 -1045 1031 -1519 1489 -1565 1510 -24 11 -65 20 -93 20 -104 0 -101 2
-750 -655 -330 -335 -610 -622 -623 -639 -12 -17 -30 -54 -39 -83 -16 -50 -16
-56 1 -110 20 -64 -14 -28 614 -647 127 -127 232 -232 232 -235 0 -3 -177
-183 -394 -401 -255 -256 -401 -410 -415 -437 -27 -54 -28 -142 -2 -198 12
-28 145 -165 435 -449 l417 -410 -405 -405 c-222 -223 -411 -421 -420 -438
-26 -51 -30 -113 -13 -174 17 -59 9 -50 702 -730 507 -499 577 -565 621 -588
55 -30 121 -32 185 -8 49 19 124 92 504 492 110 116 231 243 270 283 38 40 75
71 81 70 6 -2 185 -173 397 -381 212 -208 401 -391 421 -406 68 -54 165 -62
246 -21 19 10 208 197 425 421 214 222 392 405 396 407 3 1 125 -113 270 -255
609 -595 560 -550 623 -568 46 -14 66 -15 108 -6 72 16 99 35 213 153 55 57
280 287 500 513 629 645 620 634 640 688 20 54 17 136 -8 183 -17 31 -199 213
-917 914 -250 245 -546 535 -658 645 -112 110 -207 202 -212 203 -6 2 -10 8
-10 14 0 6 181 196 402 422 432 442 518 530 1113 1141 410 421 637 654 976
1000 113 115 311 318 439 450 129 132 240 240 247 240 7 0 79 -65 160 -145
150 -147 229 -224 1043 -1020 659 -645 605 -600 715 -600 85 0 128 26 251 153
60 62 292 299 514 527 584 598 606 622 624 664 20 48 21 135 1 184 -10 26
-135 156 -427 444 l-413 407 401 403 c374 376 403 407 419 457 20 61 16 131
-10 181 -9 18 -130 143 -268 278 -139 136 -325 319 -414 407 l-163 160 399
401 c241 243 407 417 420 442 31 60 36 111 17 176 -21 70 72 -24 -1124 1142
-90 87 -180 167 -199 177 -47 25 -128 30 -176 12z m596 -1059 l347 -340 -307
-308 c-169 -170 -311 -307 -314 -306 -16 6 -839 814 -839 823 0 11 7 19 343
373 l250 262 86 -82 c47 -45 242 -235 434 -422z m-1458 -455 c1216 -1188 1491
-1457 1658 -1621 l168 -165 -303 -308 -303 -308 -105 103 c-58 57 -296 290
-530 518 -234 228 -540 527 -680 665 -140 138 -349 343 -465 455 -115 113
-320 313 -455 445 -135 132 -312 306 -393 385 l-149 146 298 311 298 312 165
-161 c91 -89 450 -438 796 -777z m-2821 900 c6 -8 393 -389 1351 -1326 248
-242 650 -636 895 -875 523 -512 2241 -2192 2350 -2296 l74 -73 -89 -95 c-172
-184 -750 -774 -757 -772 -8 1 -177 164 -513 495 -143 141 -348 342 -455 446
-194 190 -985 962 -1344 1315 -104 102 -197 192 -206 200 -9 8 -221 215 -471
460 -250 244 -548 537 -664 650 -115 113 -309 303 -430 421 -121 119 -308 302
-415 407 l-195 190 85 89 c371 385 755 773 766 773 7 0 15 -4 18 -9z m1078
-3412 c188 -185 379 -370 422 -411 l79 -74 -253 -260 c-140 -142 -344 -351
-454 -464 -111 -113 -282 -288 -380 -390 -169 -174 -268 -276 -776 -795 -113
-115 -363 -372 -555 -570 -636 -655 -750 -772 -760 -777 -11 -6 -854 811 -851
824 1 8 -54 -50 1181 1218 2128 2184 1988 2041 1996 2038 4 -2 162 -154 351
-339z m-5609 -1544 c90 -88 272 -266 403 -395 132 -129 338 -332 460 -450 247
-242 968 -946 1324 -1295 129 -126 343 -336 475 -465 132 -129 339 -332 460
-450 121 -118 407 -398 635 -621 228 -223 493 -481 588 -574 95 -93 171 -172
170 -176 -2 -4 -156 -164 -343 -356 -187 -191 -373 -383 -414 -426 -41 -42
-79 -77 -85 -77 -6 0 -112 100 -236 223 -124 122 -324 319 -445 437 -443 432
-1408 1376 -1780 1741 -126 124 -439 430 -695 680 -256 249 -663 647 -905 884
-242 237 -482 471 -533 520 -51 49 -91 94 -90 100 4 16 831 866 839 863 4 -2
81 -75 172 -163z m272 -2620 c242 -236 550 -538 685 -670 296 -291 553 -543
1052 -1030 l377 -368 -79 -86 c-44 -47 -179 -187 -299 -311 l-219 -225 -134
130 c-73 71 -232 227 -353 345 -121 119 -422 414 -670 655 -247 241 -549 536
-670 655 -121 119 -385 378 -587 575 -203 197 -368 361 -368 364 0 3 136 142
302 308 l303 303 110 -108 c60 -60 308 -301 550 -537z m-503 -1370 c62 -60
252 -246 422 -412 l308 -301 -243 -254 c-134 -139 -271 -281 -304 -315 l-60
-63 -135 133 c-74 73 -269 263 -432 422 l-297 290 302 307 c166 170 307 307
314 305 6 -1 63 -51 125 -112z"/>
</g>
</svg>
