<svg viewBox="0 0 512 512" xmlns="http://www.w3.org/2000/svg"><path d="m497 106.03125h-134.011719c-.523437-58.554688-48.3125-106.03125-106.988281-106.03125s-106.464844 47.476562-106.988281 106.03125h-134.011719c-8.285156 0-15 6.714844-15 15v60c0 8.285156 6.714844 15 15 15h16v74.96875c0 8.285156 6.714844 15 15 15h15v126h-15c-8.285156 0-15 6.714844-15 15v70c0 8.285156 6.714844 15 15 15h60c8.285156 0 15-6.714844 15-15v-70c0-8.285156-6.714844-15-15-15h-15v-126h330v126h-15c-8.285156 0-15 6.714844-15 15v70c0 8.285156 6.714844 15 15 15h60c8.285156 0 15-6.714844 15-15v-70c0-8.285156-6.714844-15-15-15h-15v-126h15c8.285156 0 15-6.714844 15-15v-74.96875h16c8.285156 0 15-6.714844 15-15v-60c0-8.285156-6.714844-15-15-15zm-406 375.96875h-30v-40h30zm360 0h-30v-40h30zm-195-452c42.457031 0 77 34.542969 77 77 0 42.460938-34.542969 77-77 77s-77-34.539062-77-77c0-42.457031 34.542969-77 77-77zm-226 106.03125h123.003906c3.039063 10.773438 7.730469 20.855469 13.777344 29.96875l-136.78125.03125zm421 119.96875h-390v-59.96875h135.71875c16.980469 11.34375 37.371094 17.96875 59.28125 17.96875 21.953125 0 42.378906-6.648438 59.378906-18.03125.207032.007812 135.621094.0625 135.621094.0625zm31-89.96875-136.78125-.03125c6.046875-9.113281 10.738281-19.195312 13.777344-29.96875h123.003906zm0 0"></path><path d="m229 148.992188c8.285156 0 15-6.714844 15-15v-20.777344l2.394531 2.390625c2.8125 2.816406 6.625 4.394531 10.605469 4.394531s7.792969-1.578125 10.605469-4.394531l2.394531-2.390625v20.789062c0 8.285156 6.714844 15 15 15 8.28125 0 15-6.714844 15-15v-57.003906c0-6.066406-3.65625-11.535156-9.261719-13.859375-5.605469-2.316406-12.054687-1.035156-16.347656 3.253906l-17.390625 17.390625-17.394531-17.390625c-4.289063-4.292969-10.742188-5.574219-16.347657-3.253906-5.605468 2.324219-9.257812 7.792969-9.257812 13.859375v56.992188c0 8.285156 6.714844 15 15 15zm0 0"></path></svg>