<svg version="1.1" id="Capa_1" xmlns="http://www.w3.org/2000/svg" xmlns:xlink="http://www.w3.org/1999/xlink" x="0px" y="0px" viewBox="0 0 496 496" style="enable-background:new 0 0 496 496;" xml:space="preserve"><g><g><g><path d="M328.004,384v16h-9.688c-12.792,0-25.328-4.368-35.304-12.288L222.82,339.92c-2.688-2.144-5.872-3.712-9.208-4.528 l-13.192-3.272c-12.88-3.176-26,4.624-29.232,17.448l-1.4,5.544c-2.472,9.832,1.56,20.2,10.048,25.824l20,13.232 c0.48,0.32,0.896,0.704,1.344,1.048l-17.968,4.464c-1.152,0.28-2.32,0.488-3.488,0.6l-42.096,4.176l-18.272-36.272 c-1.888-3.72-4.728-6.904-8.208-9.216l-1.576-1.04c-6.528-4.328-14.808-5.208-22.112-2.384c-7.272,2.824-12.752,9-14.648,16.528 l-0.432,3.032l-0.096-0.096c-4.56-4.512-10.608-7.008-17.04-7.008h-5.88c-10.392,0-19.584,6.584-22.88,16.392l-1.232,3.68 c-2.912,8.696-0.68,18.12,5.84,24.6l27.864,27.656c9.68,9.608,21.656,16.944,34.624,21.232l42.096,13.928 c9.04,2.992,18.464,4.504,28,4.504h130.16c7.232,0,14.464-0.88,21.48-2.624l12.688-3.144V496h144V384H328.004z M88.412,375.632 c0.712-2.384,2.456-4.256,4.816-5.168c2.528-0.984,5.248-0.68,7.512,0.816l1.576,1.04c1.168,0.776,2.12,1.84,2.744,3.088 l15.488,30.744l-3.904,0.384c-7.32,0.688-14.424-1.816-19.584-6.936l-10.536-10.448L88.412,375.632z M328.004,457.752 l-16.544,4.088c-5.76,1.432-11.688,2.16-17.624,2.16h-130.16c-7.832,0-15.552-1.24-22.968-3.696l-42.104-13.928 c-10.632-3.512-20.448-9.528-28.384-17.408L42.364,401.32c-2.168-2.16-2.912-5.28-1.944-8.16l1.232-3.68 c1.104-3.28,4.2-5.48,7.712-5.48h5.88c2.152,0,4.248,0.856,5.768,2.368l24.776,24.584c8.568,8.496,20.384,12.672,32.44,11.504 l63.08-6.256c1.936-0.192,3.856-0.52,5.752-0.992l23.048-5.72c0.68,3.392,0.664,6.944-0.216,10.44l-2.544,10.128l15.512,3.904 l2.544-10.128c4.128-16.376-2.6-33.656-16.744-43.008l-19.992-13.232c-2.832-1.872-4.184-5.32-3.368-8.56l1.4-5.544 c1.08-4.304,5.544-6.888,9.856-5.832l13.208,3.272c1.128,0.28,2.184,0.808,3.096,1.52l60.2,47.8 c12.8,10.168,28.864,15.76,45.256,15.76h9.688V457.752z M456.004,480h-112v-80h112V480z"></path><path d="M232.004,160v-16.408c13.536-1.96,24-13.528,24-27.592c0-15.44-12.56-28-28-28h-8c-6.616,0-12-5.384-12-12 c0-6.616,5.384-12,12-12h8c6.616,0,12,5.384,12,12v4h16v-4c0-14.064-10.464-25.632-24-27.592V32h-16v16.408 c-13.536,1.96-24,13.528-24,27.592c0,15.44,12.56,28,28,28h8c6.616,0,12,5.384,12,12c0,6.616-5.384,12-12,12h-8 c-6.616,0-12-5.384-12-12v-4h-16v4c0,14.064,10.464,25.632,24,27.592V160H232.004z"></path><path d="M103.012,176.064l-9.392,1.168l6.032,20.104c11.008,36.688,40.344,63.688,76.8,71.984 c-10.192,11.336-16.448,26.272-16.448,42.68v8h128v-8c0-16.408-6.256-31.344-16.448-42.68 c36.456-8.304,65.784-35.296,76.8-71.984l6.032-20.104l-9.392-1.168c-42.496-5.28-84.656,10.648-112.992,42.68v-27.152 c49.2-4.088,88-45.352,88-95.592c0-52.936-43.064-96-96-96c-52.936,0-96,43.064-96,96c0,50.24,38.8,91.504,88,95.592v27.152 C187.66,186.72,145.556,170.752,103.012,176.064z M114.98,192.744l-0.48-1.592c34.048-1.344,67.216,12.68,89.944,38.656 l11.56,13.2v5.552c-8.408,1.056-16.312,3.728-23.384,7.728l0.048-0.592C156.044,252.68,125.54,227.96,114.98,192.744z M243.556,229.808c22.728-25.976,55.728-40.08,89.944-38.656l-0.48,1.592c-10.56,35.216-41.064,59.936-77.688,62.952l0.048,0.592 c-7.072-4-14.976-6.672-23.384-7.728v-5.552L243.556,229.808z M144.004,96c0-44.112,35.888-80,80-80s80,35.888,80,80 s-35.888,80-80,80S144.004,140.112,144.004,96z M224.004,264c23.744,0,43.512,17.328,47.336,40h-94.672 C180.492,281.328,200.26,264,224.004,264z"></path><rect x="368.004" width="16" height="16"></rect><rect x="368.004" y="32" width="16" height="16"></rect><rect x="384.004" y="16" width="16" height="16"></rect><rect x="352.004" y="16" width="16" height="16"></rect><rect x="72.004" y="88" width="16" height="16"></rect><rect x="72.004" y="120" width="16" height="16"></rect><rect x="88.004" y="104" width="16" height="16"></rect><rect x="56.004" y="104" width="16" height="16"></rect><rect x="384.004" y="96" width="16" height="16"></rect><rect x="384.004" y="128" width="16" height="16"></rect><rect x="400.004" y="112" width="16" height="16"></rect><rect x="368.004" y="112" width="16" height="16"></rect></g></g></g></svg>