<svg version="1.1" id="Capa_1" xmlns="http://www.w3.org/2000/svg" xmlns:xlink="http://www.w3.org/1999/xlink" x="0px" y="0px" viewBox="0 0 508.1 508.1" style="enable-background:new 0 0 508.1 508.1;" xml:space="preserve"><g><g><path d="M368.7,0.05c-40.7,0-73.7,33.1-73.7,73.7c0,40.6,33.1,73.8,73.7,73.8c40.7,0,73.7-33.1,73.7-73.7 C442.4,33.25,409.4,0.05,368.7,0.05z M368.7,131.25c-31.6,0-57.4-25.7-57.4-57.4c0.1-31.7,25.8-57.4,57.4-57.4 c31.6,0,57.4,25.7,57.4,57.4C426.1,105.45,400.4,131.25,368.7,131.25z"></path></g></g><g><g><path d="M442.5,373.15v-53.5h32.8v-114.8c0-26.7-14.5-51.3-37.8-64.4l-5-2.8l-4.3,3.8c-16.5,14.5-37.6,22.4-59.3,22.4 s-42.8-8-59.3-22.4l-4.3-3.8l-5,2.8c-23.3,13-37.8,37.7-37.8,64.4v114.7H295v53.5c-41.2,13.1-65.5,36.1-65.5,62.1 c0,40.9,61.2,72.9,139.3,72.9s139.3-32,139.3-72.9C508,409.15,483.6,386.25,442.5,373.15z M278.6,303.25v-98.3 c0-18.9,9.4-36.5,24.8-47.2c18.7,14.6,41.7,22.6,65.4,22.6c23.7,0,46.7-8,65.4-22.6c15.4,10.7,24.8,28.3,24.8,47.2v98.3h-32.8 v147.5H377v-114.8h-16.4v114.7h-49.2v-147.4H278.6z M368.7,491.65c-66.6,0-122.9-25.9-122.9-56.5c0-17,19-34,49.2-44.8v76.7h147.5 v-76.7c30.2,10.8,49.2,27.7,49.2,44.8C491.6,465.85,435.3,491.65,368.7,491.65z"></path></g></g><g><g><path d="M106.5,57.35c-31.6,0-57.4,25.7-57.4,57.4c0.1,31.6,25.8,57.4,57.4,57.4c31.6,0,57.4-25.7,57.4-57.4 C163.9,83.15,138.2,57.35,106.5,57.35z M106.5,155.75c-22.6,0-41-18.4-41-41c0-22.6,18.4-41,41-41c22.6,0,41,18.4,41,41 C147.5,137.35,129.1,155.75,106.5,155.75z"></path></g></g><g><g><path d="M163.9,337.75v-36.6h24.6v-88.1c0-20.7-11.3-39.9-29.4-50.1l-5-2.8l-4.3,3.8c-12,10.5-27.3,16.3-43.1,16.3 s-31.1-5.8-43.1-16.3l-4.3-3.8l-5,2.8c-18.2,10.1-29.4,29.3-29.4,50.1v88.1h24.6v36.6C18.3,347.95,0,365.65,0,385.85 c0,31.8,46.8,56.7,106.5,56.7s106.5-24.9,106.5-56.7C213,365.65,194.8,347.95,163.9,337.75z M41,284.75v-71.7 c0-13,6.2-25.1,16.5-32.8c14.2,10.6,31.4,16.4,49.1,16.4c17.7,0,34.9-5.8,49.1-16.4c10.3,7.7,16.5,19.8,16.5,32.8v71.7h-24.6 v110.6h-32.8v-84H98.4v84H65.5v-110.6H41z M106.5,426.15c-53.1,0-90.1-21.2-90.1-40.3c0-11.4,12.6-22.9,32.8-30.6v56.6h114.7 v-56.6c20.2,7.8,32.8,19.2,32.8,30.6C196.6,404.85,159.6,426.15,106.5,426.15z"></path></g></g></svg>