    <svg xmlns="http://www.w3.org/2000/svg" version="1.1" width="512px" height="512px" style="shape-rendering:geometricPrecision; text-rendering:geometricPrecision; image-rendering:optimizeQuality; fill-rule:evenodd; clip-rule:evenodd" xmlns:xlink="http://www.w3.org/1999/xlink">
    <g><path style="opacity:0.834" fill="#000000" d="M -0.5,15.5 C -0.5,12.5 -0.5,9.5 -0.5,6.5C 3.47784,4.99597 7.6445,4.3293 12,4.5C 26.8936,4.202 41.3936,6.36866 55.5,11C 95.1667,28.5 134.833,46 174.5,63.5C 177.402,67.3932 176.736,70.5599 172.5,73C 170.447,73.3247 168.447,72.9913 166.5,72C 126.95,54.3917 87.2837,37.0583 47.5,20C 42.3219,18.202 36.9885,17.202 31.5,17C 20.8007,16.7635 10.134,16.2635 -0.5,15.5 Z"/></g>
    <g><path style="opacity:0.864" fill="#000000" d="M 310.5,4.5 C 313.961,4.14587 316.461,5.4792 318,8.5C 318.499,13.8229 318.666,19.1563 318.5,24.5C 321.85,24.335 325.183,24.5017 328.5,25C 332.5,28.3333 332.5,31.6667 328.5,35C 325.183,35.4983 321.85,35.665 318.5,35.5C 318.666,40.8437 318.499,46.1771 318,51.5C 314.994,55.0725 311.661,55.4059 308,52.5C 307.829,47.1358 307.329,41.8025 306.5,36.5C 303.557,35.7565 300.557,35.2565 297.5,35C 293.977,32.2064 293.644,29.0398 296.5,25.5C 300.034,24.8687 303.534,24.202 307,23.5C 307.333,18.1667 307.667,12.8333 308,7.5C 309.045,6.62656 309.878,5.62656 310.5,4.5 Z"/></g>
    <g><path style="opacity:0.831" fill="#000000" d="M 237.5,27.5 C 247.754,27.7857 253.754,32.9524 255.5,43C 252.285,56.2732 244.285,60.6065 231.5,56C 222.243,47.3663 222.243,38.6996 231.5,30C 233.611,29.1553 235.611,28.322 237.5,27.5 Z M 239.5,38.5 C 243.148,39.5002 244.314,41.8336 243,45.5C 239.456,48.3196 236.956,47.4863 235.5,43C 236.117,40.7731 237.451,39.2731 239.5,38.5 Z"/></g>
    <g><path style="opacity:0.857" fill="#000000" d="M 189.5,70.5 C 219.176,83.3384 248.842,96.1717 278.5,109C 284,111.833 288.167,116 291,121.5C 292.644,162.787 292.977,204.12 292,245.5C 288.867,250.656 284.367,252.489 278.5,251C 281.755,261.283 284.755,271.617 287.5,282C 285.828,288.985 281.328,292.152 274,291.5C 271.075,291.477 268.241,290.977 265.5,290C 260.286,284.797 254.452,280.297 248,276.5C 248.779,282.554 249.446,288.554 250,294.5C 242.546,301.395 234.379,302.228 225.5,297C 220.9,291.708 215.567,287.375 209.5,284C 202.088,275.904 196.254,266.737 192,256.5C 185.71,237.338 180.043,218.005 175,198.5C 168.051,188.549 160.717,178.883 153,169.5C 163.379,210.381 174.546,251.047 186.5,291.5C 183.936,297.883 179.103,300.883 172,300.5C 164.755,300.235 159.255,297.068 155.5,291C 143.315,283.832 134.482,273.666 129,260.5C 124.719,249.38 121.052,238.046 118,226.5C 116.034,220.742 117.867,217.575 123.5,217C 124.931,217.465 126.097,218.299 127,219.5C 131.108,234.593 136.442,249.26 143,263.5C 145.333,266.833 147.667,270.167 150,273.5C 149.28,265.377 151.28,258.044 156,251.5C 158.846,249.987 161.013,247.821 162.5,245C 154.741,217.46 146.907,189.96 139,162.5C 136.573,155.014 139.073,150.347 146.5,148.5C 149.366,149.182 151.866,150.516 154,152.5C 162.943,165.377 172.609,177.711 183,189.5C 188.819,208.438 194.485,227.438 200,246.5C 203.703,256.242 208.703,265.242 215,273.5C 213.22,262.406 216.887,253.74 226,247.5C 226.667,245.5 226.667,243.5 226,241.5C 220.669,222.178 215.336,202.845 210,183.5C 197.819,164.983 184.486,147.316 170,130.5C 167.286,125.685 168.619,122.685 174,121.5C 175.895,121.615 177.562,122.282 179,123.5C 192,140.167 205,156.833 218,173.5C 224.207,195.537 230.541,217.537 237,239.5C 240.731,248.364 245.398,256.698 251,264.5C 250.468,253.071 254.635,243.905 263.5,237C 256.667,212.5 249.833,188 243,163.5C 232.058,147.957 220.392,132.957 208,118.5C 201.761,107.951 197.594,96.6173 195.5,84.5C 191.462,83.3989 187.962,81.3989 185,78.5C 184.697,74.7679 186.197,72.1013 189.5,70.5 Z M 208.5,90.5 C 230.145,99.9879 251.812,109.488 273.5,119C 279.181,121.686 282.015,126.186 282,132.5C 282.667,153.167 282.667,173.833 282,194.5C 279.124,196.693 275.957,198.526 272.5,200C 270.291,201.873 268.458,204.04 267,206.5C 261.968,189.028 256.634,171.695 251,154.5C 237.923,138.431 225.256,122.097 213,105.5C 211.184,100.554 209.684,95.5543 208.5,90.5 Z M 280.5,207.5 C 281.117,207.611 281.617,207.944 282,208.5C 282.667,218.5 282.667,228.5 282,238.5C 278.818,239.748 276.485,238.748 275,235.5C 274.333,228.833 274.333,222.167 275,215.5C 276.243,212.424 278.077,209.757 280.5,207.5 Z M 265.5,250.5 C 266.75,250.577 267.583,251.244 268,252.5C 270.342,261.534 272.842,270.534 275.5,279.5C 269.53,281.048 266.03,278.714 265,272.5C 263.024,266.627 262.357,260.627 263,254.5C 263.662,253.016 264.496,251.683 265.5,250.5 Z M 164.5,258.5 C 169.006,267.812 172.006,277.812 173.5,288.5C 167.952,289.457 164.785,287.123 164,281.5C 162.832,276.827 161.665,272.161 160.5,267.5C 161.446,264.327 162.78,261.327 164.5,258.5 Z M 229.5,258.5 C 233.4,268.07 236.4,278.07 238.5,288.5C 233.867,289.542 230.701,287.875 229,283.5C 227.769,278.181 226.603,272.847 225.5,267.5C 226.07,264.108 227.404,261.108 229.5,258.5 Z"/></g>
    <g><path style="opacity:0.838" fill="#000000" d="M -0.5,98.5 C -0.5,91.8333 -0.5,85.1667 -0.5,78.5C 2.62493,76.8285 5.45826,77.1618 8,79.5C 9.18226,102.658 20.0156,119.491 40.5,130C 64.3411,139.839 87.8411,150.339 111,161.5C 114.759,175.372 118.593,189.206 122.5,203C 121.153,209.43 117.986,210.596 113,206.5C 109.329,193.445 105.162,180.611 100.5,168C 75.5973,157.549 50.9306,146.549 26.5,135C 13.7362,125.648 4.73618,113.481 -0.5,98.5 Z"/></g>
    <g><path style="opacity:0.831" fill="#000000" d="M 75.5,88.5 C 78.3646,88.0548 80.8646,88.7215 83,90.5C 83.4994,96.1569 83.6661,101.824 83.5,107.5C 86.5184,107.335 89.5184,107.502 92.5,108C 96.9937,110.467 97.6604,113.8 94.5,118C 90.9339,119.285 87.4339,119.785 84,119.5C 83.6667,124.833 83.3333,130.167 83,135.5C 79.4024,139.404 76.0691,139.07 73,134.5C 72.5007,129.511 72.3341,124.511 72.5,119.5C 69.0901,119.543 65.7568,119.043 62.5,118C 58.4339,114.255 58.7673,110.922 63.5,108C 66.4816,107.502 69.4816,107.335 72.5,107.5C 72.3341,102.489 72.5007,97.4889 73,92.5C 73.6622,91.0161 74.4955,89.6828 75.5,88.5 Z"/></g>
    <g><path style="opacity:0.82" fill="#000000" d="M -0.5,204.5 C -0.5,201.833 -0.5,199.167 -0.5,196.5C 3.39977,195.57 7.39977,195.237 11.5,195.5C 11.3339,189.824 11.5006,184.157 12,178.5C 15.1235,174.566 18.2901,174.566 21.5,178.5C 22.4954,184.128 22.8288,189.794 22.5,195.5C 25.8499,195.335 29.1832,195.502 32.5,196C 36.4336,199.123 36.4336,202.29 32.5,205.5C 29.2317,206.487 25.8984,206.82 22.5,206.5C 22.666,211.844 22.4994,217.177 22,222.5C 19.0293,226.092 15.696,226.425 12,223.5C 11.5006,217.843 11.3339,212.176 11.5,206.5C 7.17262,206.984 3.17262,206.318 -0.5,204.5 Z"/></g>
    <g><path style="opacity:0.838" fill="#000000" d="M 67.5,204.5 C 79.8176,206.308 84.9843,213.308 83,225.5C 77.0715,236.013 68.9048,238.18 58.5,232C 51.8136,223.744 52.1469,215.744 59.5,208C 62.1579,206.522 64.8245,205.355 67.5,204.5 Z M 66.5,216.5 C 72.4685,216.605 73.8018,219.105 70.5,224C 64.392,224.078 63.0587,221.578 66.5,216.5 Z"/></g>
    <g><path style="opacity:0.868" fill="#000000" d="M 511.5,270.5 C 511.5,274.5 511.5,278.5 511.5,282.5C 503.581,287.08 495.914,292.08 488.5,297.5C 493.421,305.009 498.587,312.342 504,319.5C 505.227,323.591 504.394,327.091 501.5,330C 493.946,334.221 486.946,339.221 480.5,345C 485.784,352.396 490.951,359.896 496,367.5C 496.847,370.588 496.347,373.421 494.5,376C 483.833,383.333 473.167,390.667 462.5,398C 458.143,402.033 453.81,402.199 449.5,398.5C 438.394,381.276 426.56,364.609 414,348.5C 383.177,369.247 352.51,390.247 322,411.5C 321.333,412.5 321.333,413.5 322,414.5C 334.277,431.408 345.777,448.741 356.5,466.5C 356.514,468.593 355.848,470.426 354.5,472C 341.994,480.086 329.661,488.419 317.5,497C 314.15,497.93 311.317,497.097 309,494.5C 304.384,486.728 299.218,479.394 293.5,472.5C 285.97,477.862 278.303,483.029 270.5,488C 267.743,488.782 265.243,488.282 263,486.5C 257.978,478.443 252.478,470.776 246.5,463.5C 239.656,468.089 232.99,472.922 226.5,478C 223.05,480.917 219.55,481.083 216,478.5C 208.247,466.66 200.247,454.993 192,443.5C 189.91,439.879 190.077,436.379 192.5,433C 200.303,428.029 207.97,422.862 215.5,417.5C 210.862,410.362 206.028,403.362 201,396.5C 198.413,391.587 199.247,387.42 203.5,384C 210.739,380.086 217.405,375.419 223.5,370C 219.073,362.571 214.24,355.404 209,348.5C 206.779,343.746 207.945,339.913 212.5,337C 223.006,330.247 233.34,323.247 243.5,316C 247.552,312.517 251.385,312.683 255,316.5C 266.205,333.608 277.872,350.275 290,366.5C 321.236,345.463 352.403,324.296 383.5,303C 372.382,285.94 360.882,269.107 349,252.5C 346.497,248.293 347.33,244.793 351.5,242C 362.167,234.667 372.833,227.333 383.5,220C 386.668,217.367 390.002,217.033 393.5,219C 399.301,226.783 404.968,234.616 410.5,242.5C 418.03,237.138 425.697,231.971 433.5,227C 435.5,226.333 437.5,226.333 439.5,227C 445.725,235.05 451.725,243.216 457.5,251.5C 464.658,246.087 471.991,240.921 479.5,236C 482.167,235.333 484.833,235.333 487.5,236C 495.402,247.663 503.402,259.163 511.5,270.5 Z M 385.5,233.5 C 387.39,233.297 388.89,233.963 390,235.5C 419.795,280.26 449.962,324.76 480.5,369C 473.078,374.794 465.245,379.961 457,384.5C 456.228,384.355 455.561,384.022 455,383.5C 425.057,339.225 394.724,295.225 364,251.5C 363.251,250.365 363.417,249.365 364.5,248.5C 371.82,243.831 378.82,238.831 385.5,233.5 Z M 432.5,242.5 C 434.91,242.921 436.743,244.254 438,246.5C 455.029,271.364 471.863,296.364 488.5,321.5C 483.643,325.852 478.477,329.852 473,333.5C 454.61,307.776 436.61,281.776 419,255.5C 418.316,254.216 418.483,253.049 419.5,252C 424.256,249.301 428.589,246.134 432.5,242.5 Z M 479.5,251.5 C 480.822,251.33 481.989,251.663 483,252.5C 488.423,259.427 493.256,266.76 497.5,274.5C 492.167,278.5 486.833,282.5 481.5,286.5C 475.672,278.83 470.005,270.997 464.5,263C 469.685,259.303 474.685,255.47 479.5,251.5 Z M 390.5,313.5 C 395.803,320.317 400.97,327.317 406,334.5C 406.667,335.5 406.667,336.5 406,337.5C 375.304,359.028 344.471,380.362 313.5,401.5C 307.173,394.055 302.007,386.055 298,377.5C 328.737,355.914 359.57,334.58 390.5,313.5 Z M 246.5,329.5 C 250.535,333.842 254.368,338.509 258,343.5C 285.129,384.26 312.629,424.76 340.5,465C 332.674,470.747 324.674,476.247 316.5,481.5C 285.747,436.326 254.747,391.326 223.5,346.5C 230.904,340.423 238.57,334.756 246.5,329.5 Z M 230.5,381.5 C 233.552,384.576 236.386,387.91 239,391.5C 254.833,414.667 270.667,437.833 286.5,461C 281.276,465.223 275.776,469.056 270,472.5C 251.377,446.087 232.877,419.587 214.5,393C 220.077,389.39 225.41,385.557 230.5,381.5 Z M 222.5,428.5 C 228.682,435.678 234.015,443.511 238.5,452C 233.945,456.541 228.778,460.374 223,463.5C 217.04,456.279 211.54,448.612 206.5,440.5C 211.863,436.491 217.196,432.491 222.5,428.5 Z"/></g>
    </svg>