<svg version="1.1" id="Capa_1" xmlns="http://www.w3.org/2000/svg" xmlns:xlink="http://www.w3.org/1999/xlink" x="0px" y="0px" viewBox="0 0 512 512" style="enable-background:new 0 0 512 512;" xml:space="preserve"><g><g><path d="M480,181.333h-80.917l-92.875-92.875c-4.171-4.171-10.912-4.171-15.083,0c-4.171,4.171-4.171,10.912,0,15.083l96,96 c1.995,2.005,4.704,3.125,7.541,3.125H480c5.888,0,10.667,4.779,10.667,10.667v256c0,5.888-4.779,10.667-10.667,10.667H32 c-5.877,0-10.667-4.779-10.667-10.667v-256c0-5.888,4.789-10.667,10.667-10.667h85.333c2.827,0,5.547-1.12,7.541-3.125l96-96 c4.171-4.171,4.171-10.912,0-15.083s-10.912-4.171-15.083,0l-92.875,92.875H32c-17.643,0-32,14.357-32,32v256 c0,17.643,14.357,32,32,32h448c17.643,0,32-14.357,32-32v-256C512,195.691,497.643,181.333,480,181.333z"></path></g></g><g><g><path d="M256,10.667c-29.408,0-53.333,23.925-53.333,53.333s23.925,53.333,53.333,53.333S309.333,93.408,309.333,64 S285.408,10.667,256,10.667z M256,96c-17.643,0-32-14.357-32-32c0-17.643,14.357-32,32-32s32,14.357,32,32 C288,81.643,273.643,96,256,96z"></path></g></g><g><g><path d="M330.667,181.333H181.333c-5.888,0-10.667,4.768-10.667,10.667s4.779,10.667,10.667,10.667h149.333 c5.899,0,10.667-4.768,10.667-10.667S336.565,181.333,330.667,181.333z"></path></g></g><g><g><path d="M224,384h-42.667v-85.333H224c5.888,0,10.667-4.768,10.667-10.667s-4.779-10.667-10.667-10.667h-53.333 c-5.888,0-10.667,4.768-10.667,10.667v106.667c0,5.899,4.779,10.667,10.667,10.667H224c5.888,0,10.667-4.768,10.667-10.667 S229.888,384,224,384z"></path></g></g><g><g><path d="M224,330.667h-53.333c-5.888,0-10.667,4.768-10.667,10.667c0,5.899,4.779,10.667,10.667,10.667H224 c5.888,0,10.667-4.768,10.667-10.667C234.667,335.435,229.888,330.667,224,330.667z"></path></g></g><g><g><path d="M106.667,277.333H64c-5.888,0-10.667,4.768-10.667,10.667v106.667c0,5.899,4.779,10.667,10.667,10.667 s10.667-4.768,10.667-10.667v-32h32c17.643,0,32-14.357,32-32v-21.333C138.667,291.691,124.309,277.333,106.667,277.333z M117.333,330.667c0,5.888-4.789,10.667-10.667,10.667h-32v-42.667h32c5.877,0,10.667,4.779,10.667,10.667V330.667z"></path></g></g><g><g><path d="M111.435,342.464c-5.259-2.613-11.648-0.501-14.293,4.757c-2.645,5.259-0.523,11.669,4.736,14.315 c7.008,3.531,14.688,9.611,15.456,11.797v21.333c0,5.899,4.779,10.667,10.667,10.667s10.667-4.768,10.667-10.667v-21.333 C138.667,357.323,117.824,345.653,111.435,342.464z"></path></g></g><g><g><g><polygon points="341.333,405.333 341.333,405.333 341.333,405.333 "></polygon><path d="M341.333,277.333c-5.899,0-10.667,4.768-10.667,10.667v72.832l-55.264-78.944c-2.667-3.819-7.52-5.483-11.947-4.064 C259.019,279.232,256,283.339,256,288v106.667c0,5.899,4.779,10.667,10.667,10.667c5.899,0,10.667-4.768,10.667-10.667v-72.832 l55.264,78.944c2.027,2.912,5.323,4.555,8.736,4.555c1.077,0,2.144-0.16,3.211-0.491c4.437-1.408,7.456-5.515,7.456-10.176V288 C352,282.101,347.232,277.333,341.333,277.333z"></path></g></g></g><g><g><path d="M448,277.333h-64c-5.899,0-10.667,4.768-10.667,10.667s4.768,10.667,10.667,10.667h64c5.899,0,10.667-4.768,10.667-10.667 S453.899,277.333,448,277.333z"></path></g></g><g><g><path d="M416,277.333c-5.899,0-10.667,4.768-10.667,10.667v106.667c0,5.899,4.768,10.667,10.667,10.667 s10.667-4.768,10.667-10.667V288C426.667,282.101,421.899,277.333,416,277.333z"></path></g></g></svg>