<svg version="1.1" id="Capa_1" xmlns="http://www.w3.org/2000/svg" xmlns:xlink="http://www.w3.org/1999/xlink" x="0px" y="0px" viewBox="0 0 440.96 440.96" style="enable-background:new 0 0 440.96 440.96;" xml:space="preserve"><g><g><path d="M358.08,0H82.667C36.952,0.118-0.011,37.272,0.107,82.986c0,0,0,0,0,0.001V358.4c0,45.597,36.963,82.56,82.56,82.56 H358.08c45.631,0,82.656-36.929,82.773-82.56V82.987C440.854,37.238,403.829,0.118,358.08,0z M419.52,358.4 c-0.118,33.849-27.591,61.227-61.44,61.227H82.667c-33.459,0.355-60.871-26.481-61.227-59.94c-0.005-0.429-0.005-0.858,0-1.287 V82.987c0-33.849,27.378-61.323,61.227-61.44H358.08c33.967,0.117,61.44,27.686,61.44,61.653V358.4z"></path></g></g><g><g><path d="M127.994,259.07c-0.359-0.413-0.749-0.797-1.167-1.151l-26.453-26.24h18.987c5.891,0,10.667-4.776,10.667-10.667v-45.227 c0-5.891-4.776-10.667-10.667-10.667h-44.8c-5.891,0-10.667,4.776-10.667,10.667v89.6c0,5.891,4.776,10.667,10.667,10.667 c0,0,0,0,0,0c5.891,0,10.667-4.776,10.667-10.667v-18.773l26.667,26.453c3.865,4.446,10.602,4.917,15.048,1.052 C131.388,270.254,131.859,263.516,127.994,259.07z M85.227,186.453h23.467v23.893H85.227V186.453z"></path></g></g><g><g><path d="M201.92,231.68c5.891,0,10.667-4.776,10.667-10.667c0-5.891-4.776-10.667-10.667-10.667h-34.56v-23.893h34.56 c5.891,0,10.667-4.776,10.667-10.667c0-5.891-4.776-10.667-10.667-10.667h-45.44c-5.891,0-10.667,4.776-10.667,10.667v89.6 c0,5.891,4.776,10.667,10.667,10.667h45.227c5.891,0,10.667-4.776,10.667-10.667c0-5.891-4.776-10.667-10.667-10.667H167.36 v-23.04H201.92z"></path></g></g><g><g><path d="M291.947,267.52c0.037-0.497,0.037-0.996,0-1.493v-90.24c0-5.891-4.776-10.667-10.667-10.667 c-5.891,0-10.667,4.776-10.667,10.667v44.8l-21.973-49.493v-1.28l-1.493-1.707l-1.707-1.067h-1.92h-2.133h-1.707h-1.92h-2.133 h-1.28l-1.707,1.493l-1.067,1.707c-0.047,0.568-0.047,1.139,0,1.707c-0.071,0.709-0.071,1.424,0,2.133 c-0.037,0.497-0.037,0.996,0,1.493v89.6c-0.322,4.916,2.764,9.413,7.467,10.88c5.891,0,10.667-4.776,10.667-10.667v-44.8 l24.747,49.28c0.759,1.266,1.776,2.356,2.987,3.2h1.067c1.486,0.898,3.172,1.411,4.907,1.493c1.476,0.324,3.004,0.324,4.48,0h1.28 l1.707-1.493l1.067-1.707c0.047-0.568,0.047-1.139,0-1.707C292.018,268.944,292.018,268.229,291.947,267.52z"></path></g></g><g><g><path d="M366.613,165.12h-45.227c-5.891,0-10.667,4.776-10.667,10.667c0,5.891,4.776,10.667,10.667,10.667h11.947v78.933 c0,5.891,4.776,10.667,10.667,10.667c5.891,0,10.667-4.776,10.667-10.667v-78.933h11.947c5.891,0,10.667-4.776,10.667-10.667 C377.28,169.896,372.504,165.12,366.613,165.12z"></path></g></g></svg>