<svg viewBox="0 0 496 496" xmlns="http://www.w3.org/2000/svg"><path d="m152.191406 211.167969 66.664063 58.832031 10.59375-12-66.671875-58.832031c-6.640625-5.855469-10.457032-14.304688-10.457032-23.167969h-16c0 13.457031 5.792969 26.273438 15.871094 35.167969zm0 0"></path><path d="m131.023438 235.167969 117.304687 103.503906 117.070313-103.648437c16.808593-14.886719 26.496093-36.296876 26.59375-58.703126l.007812-1.046874c.097656-21.152344-8.0625-41.050782-22.984375-56.035157-2.824219-2.832031-5.863281-5.34375-9.015625-7.679687v-29.765625l-23.144531-5.914063c-.160157-.390625-.320313-.78125-.488281-1.167968l12.183593-20.535157-42.71875-42.734375-20.535156 12.183594c-.394531-.167969-.785156-.328125-1.167969-.488281l-5.921875-23.136719h-60.421875l-5.914062 23.144531c-.390625.160157-.78125.320313-1.167969.488281l-20.535156-12.191406-42.726563 42.726563 12.183594 20.535156c-.167969.394531-.328125.785156-.488281 1.167969l-23.136719 5.921875v30.054687c-19.191406 14.410156-31.679688 37.28125-31.679688 63.0625v1.089844c0 22.632812 9.734376 44.191406 26.703126 59.167969zm20.976562-140.960938 19.257812-4.910156 1.429688-4.03125c.914062-2.609375 1.976562-5.152344 3.160156-7.625l1.839844-3.847656-10.144531-17.097657 25.152343-25.152343 17.097657 10.144531 3.847656-1.839844c2.480469-1.175781 5.015625-2.238281 7.625-3.160156l4.03125-1.429688 4.910156-19.257812h35.578125l4.910156 19.257812 4.03125 1.429688c2.609376.914062 5.152344 1.976562 7.625 3.160156l3.847657 1.839844 17.097656-10.144531 25.152344 25.152343-10.144531 17.097657 1.839843 3.847656c1.175781 2.480469 2.238281 5.015625 3.160157 7.625l1.429687 4.03125 19.265625 4.910156v8.082031c-9.648438-4.105468-20.105469-6.289062-30.910156-6.289062-1.050782 0-2.089844.089844-3.128906.136719-7.136719-27.90625-32.511719-48.136719-61.960938-48.136719-29.425781 0-54.816406 20.230469-61.953125 48.121094-.941406-.03125-1.871094-.121094-2.816406-.121094-11.09375 0-21.644531 2.328125-31.230469 6.472656zm80.105469 18.714844c-.027344-.3125-.105469-.609375-.105469-.921875 0-8.824219 7.175781-16 16-16s16 7.175781 16 16c0 .414062-.113281.824219-.144531 1.238281l-15.734375 12.523438-15.3125-12.320313c-.234375-.183594-.480469-.34375-.703125-.519531zm46.726562-9.019531c-3.609375-13.710938-16-23.902344-30.832031-23.902344-14.769531 0-27.105469 10.105469-30.777344 23.726562-4.847656-2.300781-9.910156-4.117187-15.132812-5.398437 5.949218-19.992187 24.46875-34.328125 45.910156-34.328125 21.480469 0 40.007812 14.367188 45.945312 34.390625-5.21875 1.3125-10.265624 3.183594-15.113281 5.511719zm-158.511719 71.007812c0-34.6875 28.222657-62.910156 63.007813-62.910156 14.304687 0 28.3125 4.9375 39.449219 13.902344l25.277344 20.335937 25.875-20.566406c11.078124-8.816406 24.980468-13.671875 39.160156-13.671875 16.855468 0 32.695312 6.574219 44.589844 18.527344 11.886718 11.945312 18.398437 27.816406 18.320312 44.640625l-.007812 1.0625c-.082032 17.882812-7.808594 34.945312-21.199219 46.816406l-106.480469 94.273437-106.703125-94.152343c-13.53125-11.9375-21.289063-29.128907-21.289063-47.167969zm0 0"></path><path d="m471.03125 264c-6.574219 0-13.007812 2.664062-17.65625 7.3125l-48.6875 48.6875h-27.070312l10.191406-15.289062c2.734375-4.117188 4.191406-8.902344 4.191406-13.855469v-1.886719c0-13.769531-11.199219-24.96875-24.96875-24.96875-6.574219 0-13.007812 2.664062-17.65625 7.3125l-76.96875 76.96875c-10.574219 10.574219-16.40625 24.640625-16.40625 39.597656v44.121094h-16v-44.121094c0-14.957031-5.832031-29.023437-16.40625-39.597656l-76.96875-76.96875c-4.648438-4.648438-11.082031-7.3125-17.65625-7.3125-13.769531 0-24.96875 11.199219-24.96875 24.96875v1.886719c0 4.945312 1.457031 9.738281 4.191406 13.847656l10.191406 15.296875h-27.070312l-48.6875-48.6875c-4.648438-4.648438-11.082031-7.3125-17.65625-7.3125-13.769531 0-24.96875 11.199219-24.96875 24.96875v1.886719c0 4.945312 1.457031 9.738281 4.191406 13.847656l46.898438 70.351563c10.414062 15.625 27.839844 24.945312 46.597656 24.945312h46.3125c4.414062 0 8 3.585938 8 8v24h-16v64h224v-64h-16v-24c0-4.414062 3.585938-8 8-8h46.3125c18.757812 0 36.175781-9.320312 46.589844-24.9375l46.898437-70.351562c2.742188-4.117188 4.199219-8.902344 4.199219-13.855469v-1.886719c0-13.769531-11.199219-24.96875-24.96875-24.96875zm-327.03125 120h-46.3125c-13.398438 0-25.839844-6.65625-33.28125-17.816406l-46.894531-70.351563c-.992188-1.472656-1.511719-3.199219-1.511719-4.976562v-1.886719c0-4.945312 4.023438-8.96875 8.96875-8.96875 2.359375 0 4.671875.953125 6.34375 2.625l53.375 53.375h44.367188l8.289062 12.441406 13.3125-8.875-29.152344-43.726562c-.984375-1.480469-1.503906-3.207032-1.503906-4.984375v-1.886719c0-4.945312 4.023438-8.96875 8.96875-8.96875 2.359375 0 4.671875.953125 6.34375 2.625l76.96875 76.96875c7.550781 7.550781 11.71875 17.597656 11.71875 28.285156v44.121094h-56v-24c0-13.230469-10.769531-24-24-24zm96 96h-88v-32h88zm104 0h-88v-32h88zm136-189.144531c0 1.777343-.519531 3.503906-1.503906 4.976562l-46.894532 70.351563c-7.441406 11.160156-19.890624 17.816406-33.289062 17.816406h-46.3125c-13.230469 0-24 10.769531-24 24v24h-56v-44.121094c0-10.6875 4.167969-20.734375 11.71875-28.285156l76.96875-76.96875c1.671875-1.671875 3.984375-2.625 6.34375-2.625 4.945312 0 8.96875 4.023438 8.96875 8.96875v1.886719c0 1.777343-.519531 3.503906-1.503906 4.976562l-29.152344 43.726563 13.3125 8.875 8.289062-12.433594h44.367188l53.375-53.375c1.671875-1.671875 3.984375-2.625 6.34375-2.625 4.945312 0 8.96875 4.023438 8.96875 8.96875zm0 0"></path></svg>