<svg version="1.1" id="Capa_1" xmlns="http://www.w3.org/2000/svg" xmlns:xlink="http://www.w3.org/1999/xlink" x="0px" y="0px" viewBox="0 0 480 480" style="enable-background:new 0 0 480 480;" xml:space="preserve"><g><g><path d="M450.306,312.616c40.133-40.911,39.502-106.611-1.41-146.743c-7.356-7.216-15.746-13.297-24.894-18.041V8 c0-4.418-3.582-8-8-8h-352c-4.418,0-8,3.582-8,8v272c0,4.418,3.582,8,8,8h219.832c22.459,43.566,72.428,65.368,119.64,52.2 l-40.136,50.696c-4.541,5.767-11.483,9.125-18.824,9.104h-14.608c11.046-16.532,6.598-38.888-9.933-49.933 c-5.912-3.95-12.861-6.061-19.971-6.067H201.49l-65.056-25.016c-28.719-8.81-59.303-9.585-88.432-2.24V312c0-4.418-3.582-8-8-8 h-32c-4.418,0-8,3.582-8,8v160c0,4.418,3.582,8,8,8h32c4.418,0,8-3.582,8-8v-14.4l118.52,22.224 c0.487,0.102,0.982,0.161,1.48,0.176h200.536c7.102,0.011,13.842-3.13,18.4-8.576l81.864-97.648 c14.338-13.544,14.981-36.146,1.437-50.484C464.927,317.668,457.932,313.922,450.306,312.616z M32.002,464h-16V320h16V464z M208.002,16h64v80h-64V16z M277.09,207.777c-6.783,20.87-6.783,43.352,0,64.223H72.002V16h120v88c0,4.418,3.582,8,8,8h80 c4.418,0,8-3.582,8-8V16h120v125.088C353.436,123.353,294.825,153.211,277.09,207.777z M376.002,328 c-48.577-0.057-87.943-39.423-88-88c0-48.601,39.399-88,88-88c48.601,0,88,39.399,88,88C464.002,288.601,424.603,328,376.002,328z M457.602,362.36c-0.257,0.239-0.5,0.493-0.728,0.76l-82.208,98.024c-1.52,1.811-3.764,2.856-6.128,2.856H168.746L48.002,441.36 V333.448c27.044-7.703,55.724-7.542,82.68,0.464l66.448,25.6c0.919,0.337,1.893,0.503,2.872,0.488h100c11.046,0,20,8.954,20,20 c0,11.046-8.954,20-20,20h-52v16h96.512c12.237,0.025,23.805-5.581,31.368-15.2l54.032-68.256 c3.555-2.947,8.03-4.555,12.648-4.544h1.656c10.923,0.009,19.775,8.861,19.784,19.784 C464.001,353.324,461.68,358.61,457.602,362.36z"></path></g></g><g><g><path d="M439.618,213.552c-0.958-2.979-3.565-5.127-6.672-5.496l-34.936-4.144l-14.808-31.328c-1.316-2.788-4.117-4.571-7.2-4.584 c-3.11-0.157-5.993,1.626-7.24,4.48l-15.424,31.432l-34.36,4.144c-4.386,0.53-7.513,4.515-6.983,8.902 c0.219,1.809,1.048,3.489,2.351,4.762l25.312,24.68l-11.344,39.408c-1.216,4.247,1.241,8.677,5.488,9.893 c2.226,0.637,4.618,0.279,6.56-0.981l35.64-23.176l35.64,23.2c3.708,2.403,8.661,1.345,11.064-2.363 c1.32-2.038,1.644-4.565,0.88-6.869L410.57,246.4l26.824-24.496C439.705,219.794,440.574,216.531,439.618,213.552z M395.946,238.096c-2.331,2.131-3.19,5.435-2.192,8.432l7.424,22.296l-20.8-13.528c-2.651-1.723-6.069-1.723-8.72,0L349.602,269.6 l6.736-23.4c0.812-2.827,0.007-5.872-2.096-7.928l-16.728-16.336l22.096-2.672c2.685-0.326,5.024-1.988,6.216-4.416l10.016-20.4 l9.6,20.288c1.174,2.495,3.55,4.209,6.288,4.536l21.976,2.6L395.946,238.096z"></path></g></g><g><g><path d="M240.002,192h-144c-4.418,0-8,3.582-8,8v48c0,4.418,3.582,8,8,8h144c4.418,0,8-3.582,8-8v-48 C248.002,195.582,244.421,192,240.002,192z M232.002,240h-128v-32h128V240z"></path></g></g><g><g><path d="M165.658,74.344l-32-32c-3.124-3.123-8.188-3.123-11.312,0l-32,32c-3.124,3.125-3.123,8.19,0.002,11.314 c1.5,1.499,3.534,2.342,5.654,2.342h8v16c0,4.418,3.582,8,8,8h32c4.418,0,8-3.582,8-8V88h8c4.418-0.001,7.999-3.583,7.998-8.002 C168,77.878,167.158,75.844,165.658,74.344z M136.002,80v16h-16V80c0.002-3.337-2.067-6.325-5.192-7.496l13.192-13.192 l13.192,13.192C138.07,73.675,136,76.663,136.002,80z"></path></g></g></svg>