<svg viewBox="-45 0 512 512" xmlns="http://www.w3.org/2000/svg"><path d="m310.355469 30.023438c-9.507813-17.84375-28.300781-30.023438-49.890625-30.023438h-99c-21.59375 0-40.386719 12.179688-49.894532 30.023438h-111.570312v481.976562h421.929688v-481.976562zm21.574219 90v301.976562h-241.929688v-301.976562zm-170.464844-90.023438h99c14.609375 0 26.5 11.886719 26.5 26.5v33.523438h-152v-33.523438c0-14.613281 11.886718-26.5 26.5-26.5zm230.464844 452h-361.929688v-421.976562h74.964844v30h-44.964844v361.976562h301.929688v-361.976562h-44.964844v-30h74.964844zm0 0"></path><path d="m180.085938 156.417969h121.804687v30h-121.804687zm0 0"></path><path d="m120.035156 156.417969h30.023438v30h-30.023438zm0 0"></path><path d="m180.085938 222.8125h121.804687v30h-121.804687zm0 0"></path><path d="m120.035156 222.8125h30.023438v30h-30.023438zm0 0"></path><path d="m180.085938 289.210938h121.804687v30h-121.804687zm0 0"></path><path d="m120.035156 289.210938h30.023438v30h-30.023438zm0 0"></path><path d="m180.085938 355.605469h121.804687v30h-121.804687zm0 0"></path><path d="m120.035156 355.605469h30.023438v30h-30.023438zm0 0"></path></svg>